<svg xmlns="http://www.w3.org/2000/svg" width="124" height="97" fill="none" viewBox="0 0 124 97"><rect width="5.769" height="13.9" x="59.958" y=".698" fill="#0FCE7C" rx="2.885"/><rect width="5.556" height="17.534" fill="#0FCE7C" rx="2.778" transform="matrix(0.971101 -0.238669 0.503738 0.863857 35.4598 7.56494)"/><rect width="5.607" height="17.228" fill="#0FCE7C" rx="2.804" transform="matrix(0.978397 0.206734 -0.448169 0.893949 83.492 5.5459)"/><path fill="#0FCE7C" fill-rule="evenodd" d="M29.8287 68.8014L51.8002 57.2651L29.8287 24.844L7.84277 57.2651L29.8287 68.8014ZM7.84277 62.5222L29.8215 75.6828L51.8002 62.5222L29.8215 93.9204L7.84277 62.5222Z" clip-rule="evenodd"/><path fill="#fff" fill-rule="evenodd" d="M22.8336 66.8014L44.8051 55.2651L22.8336 22.844L0.847656 55.2651L22.8336 66.8014ZM0.847656 60.5222L22.8264 73.6828L44.8051 60.5222L22.8264 91.9204L0.847656 60.5222Z" clip-rule="evenodd"/><path fill="#0FCE7C" fill-rule="evenodd" d="M101.844 71.465L123.816 59.9286L101.844 27.5076L79.8584 59.9286L101.844 71.465ZM79.8584 65.1858L101.837 78.3464L123.816 65.1858L101.837 96.5839L79.8584 65.1858Z" clip-rule="evenodd"/><path fill="#fff" fill-rule="evenodd" d="M94.8492 69.465L116.821 57.9286L94.8492 25.5076L72.8633 57.9286L94.8492 69.465ZM72.8633 63.1858L94.842 76.3464L116.821 63.1858L94.842 94.5839L72.8633 63.1858Z" clip-rule="evenodd"/></svg>