<svg xmlns="http://www.w3.org/2000/svg" width="81" height="65" fill="none" viewBox="0 0 81 65"><path fill="#0FCE7C" d="M78.4023 54.2508C79.3562 54.2508 80.1367 55.1508 80.1367 56.2508V62.9175C80.1367 64.0175 79.3562 64.9175 78.4023 64.9175H7.87109C6.91719 64.9175 6.13672 64.0175 6.13672 62.9175V2.91748C6.13672 1.81748 6.91719 0.91748 7.87109 0.91748H13.6523C14.6062 0.91748 15.3867 1.81748 15.3867 2.91748V54.2508H78.4023ZM60.0035 16.8341L47.7617 26.2508L35.4332 7.30081C34.6961 6.16748 33.193 6.25081 32.557 7.46748L20.0117 31.5841V48.9175H75.5117L62.5184 17.6175C62.0559 16.5341 60.8707 16.1675 60.0035 16.8341Z"/><rect width="9.976" height="57.591" x=".719" y=".952" fill="#fff" rx="2"/><rect width="9.976" height="70.72" x="76.427" y="48.567" fill="#fff" rx="2" transform="rotate(90 76.4266 48.5674)"/></svg>