<svg xmlns="http://www.w3.org/2000/svg" width="111" height="106" fill="none" viewBox="0 0 111 106"><path fill="#fff" fill-rule="evenodd" d="M24.1945 31.7346C28.5006 30.3101 33.5263 31.288 37.1869 34.701C42.4501 39.6081 42.898 47.6909 38.1874 52.7543C33.4768 57.8178 25.3914 57.9445 20.1282 53.0374C16.1731 49.3497 14.9372 43.8687 16.5663 39.2234L26.5278 48.5134C27.7054 49.6118 29.553 49.542 30.6545 48.3576L33.9386 44.8262C35.0401 43.6419 34.9783 41.7914 33.8006 40.6931L24.1945 31.7346Z" clip-rule="evenodd"/><rect width="10.995" height="53.784" fill="#fff" rx="2.2" transform="matrix(-0.681997 0.731356 0.731351 0.682 36.7237 45.0684)"/><path fill="#fff" fill-rule="evenodd" d="M87.1221 31.7352C82.816 30.3107 77.7902 31.2886 74.1296 34.7016C68.8665 39.6087 68.4185 47.6915 73.1292 52.7549C77.8398 57.8184 85.9252 57.9451 91.1884 53.038C95.1435 49.3503 96.3794 43.8694 94.7503 39.2241L84.7889 48.514C83.6112 49.6123 81.7636 49.5426 80.6621 48.3582L77.378 44.8268C76.2766 43.6425 76.3384 41.792 77.5161 40.6937L87.1221 31.7352Z" clip-rule="evenodd"/><rect width="10.995" height="53.784" fill="#fff" rx="2.2" transform="matrix(0.682 0.731353 -0.731355 0.681997 74.5931 45.0686)"/><rect width="5.769" height="13.9" x="52.641" y=".056" fill="#0FCE7C" rx="2.885"/><rect width="5.556" height="17.534" fill="#0FCE7C" rx="2.778" transform="matrix(0.971101 -0.238669 0.503738 0.863857 28.1434 6.9231)"/><rect width="5.607" height="17.228" fill="#0FCE7C" rx="2.804" transform="matrix(0.978397 0.206734 -0.448169 0.893949 76.1756 4.90417)"/></svg>