<svg xmlns="http://www.w3.org/2000/svg" xmlns:xlink="http://www.w3.org/1999/xlink" id="Layer_1" x="0" y="0" enable-background="new 0 0 215 215" version="1.1" viewBox="0 0 215 215" xml:space="preserve"><switch><g><path fill="#FFF" stroke="#1C0E40" stroke-miterlimit="10" stroke-width="4" d="M55.19,75.94c-8.53,0-17.07,0-25.6,0 c-0.55,2.78-0.32,5.01,0.15,6.75c2.56,9.43,15.57,15.94,32.39,16.55"/><path fill="#FFF" stroke="#1C0E40" stroke-miterlimit="10" stroke-width="4" d="M159.81,75.94c8.53,0,17.07,0,25.6,0 c0.55,2.78,0.32,5.01-0.15,6.75c-2.56,9.43-15.57,15.94-32.39,16.55"/><path fill="#FFF" stroke="#1C0E40" stroke-miterlimit="10" stroke-width="4" d="M98.81,105.25c2.83,0.36,5.74,0.54,8.7,0.54 c3.06,0,6.06-0.2,8.98-0.58"/><path fill="#FFF" stroke="#1C0E40" stroke-miterlimit="10" stroke-width="4" d="M98.81,105.25v0.54 c0,19.93-7.31,37.19-17.94,45.49"/><path fill="#FFF" stroke="#1C0E40" stroke-miterlimit="10" stroke-width="4" d="M116.49,105.21v0.58 c0,19.93,7.31,37.19,17.94,45.49"/><line x1="134.43" x2="80.87" y1="151.29" y2="151.29" fill="none" stroke="#1C0E40" stroke-miterlimit="10" stroke-width="4"/><path fill="#FFF" stroke="#1C0E40" stroke-miterlimit="10" stroke-width="4" d="M170.75,69.6c0.37-0.22,0.56-0.46,0.56-0.69 c0-2.87-28.28-5.19-63.17-5.19c-34.9,0-63.18,2.32-63.18,5.19c0,0.23,0.19,0.47,0.56,0.69"/><g><path fill="#00ED92" stroke="#1C0B40" stroke-miterlimit="10" stroke-width="5" d="M81.8,92.68l2.14-35 c0.25-4.1,2.96-7.7,6.83-9.07l33.04-11.76c6.61-2.35,13.28,2.67,12.85,9.67l-2.14,35c-0.25,4.1-2.96,7.7-6.83,9.07l-33.04,11.76 C88.05,104.7,81.38,99.68,81.8,92.68z"/><path fill="#00ED92" stroke="#1C0B40" stroke-miterlimit="10" stroke-width="5" d="M92.79,49.45l25.87,0.78 c3.03,0.09,5.63,2.05,6.56,4.93l7.92,24.64c1.58,4.93-2.29,10.08-7.47,9.92L99.8,88.95c-3.03-0.09-5.63-2.05-6.56-4.93 l-7.92-24.64C83.74,54.45,87.62,49.3,92.79,49.45z"/><line x1="132.67" x2="85.4" y1="38.03" y2="100.87" fill="#00ED92" stroke="#1C0B40" stroke-miterlimit="10" stroke-width="5"/></g><path fill="#FFF" stroke="#1C0E40" stroke-miterlimit="10" stroke-width="4" d="M171.31,69.6c0.73,2.02,1.11,4.1,1.11,6.23 c0,18.52-28.78,33.54-64.29,33.54c-35.5,0-64.28-15.02-64.28-33.54c0-2.13,0.38-4.21,1.11-6.23 M44.96,69.6 c12.85,5.39,36.33,8.99,63.17,8.99s50.33-3.61,63.18-8.99"/></g></switch></svg>