<svg xmlns="http://www.w3.org/2000/svg" xmlns:xlink="http://www.w3.org/1999/xlink" id="Layer_1" x="0" y="0" enable-background="new 0 0 215 215" version="1.1" viewBox="0 0 215 215" xml:space="preserve"><switch><g><path fill="#FFF" stroke="#1C0E3F" stroke-miterlimit="10" stroke-width="6" d="M165.86,163.88H45.45c-6.6,0-12-5.4-12-12 V66.56c0-6.6,5.4-12,12-12h120.41c6.6,0,12,5.4,12,12v85.32C177.86,158.48,172.46,163.88,165.86,163.88z"/><line x1="49.45" x2="124.14" y1="86.28" y2="86.28" fill="#FFF" stroke="#1C0E3F" stroke-linecap="round" stroke-miterlimit="10" stroke-width="6"/><line x1="48.67" x2="161.88" y1="111.85" y2="111.85" fill="#FFF" stroke="#1C0E3F" stroke-linecap="round" stroke-miterlimit="10" stroke-width="6"/><line x1="49.26" x2="81.52" y1="143.67" y2="143.67" fill="#FFF" stroke="#1C0E3F" stroke-linecap="round" stroke-miterlimit="10" stroke-width="6"/><line x1="111.33" x2="161.88" y1="143.67" y2="143.67" fill="#FFF" stroke="#1C0E3F" stroke-linecap="round" stroke-miterlimit="10" stroke-width="6"/><g><path fill="#BCB0D0" d="M155.59,81.28l-6.87,5.38c-0.57,0.45-1.33,0.47-1.92,0.04l-7.21-5.14c-0.77-0.55-1.03-1.67-0.6-2.56 l6.86-14.38c0.64-1.35,2.36-1.37,3.03-0.04l7.21,14.15C156.54,79.6,156.32,80.71,155.59,81.28z"/><path fill="#BCB0D0" d="M141.31,85.09c2.61,1.85,5.78,3.99,6.53,4.02c0.76,0.04,4.19-2.32,6.95-4.31c0.8-0.58,1.77,0.51,1.24,1.4 l-7.29,12.36c-0.34,0.58-1.1,0.58-1.44,0l-7.22-12.07C139.56,85.61,140.51,84.53,141.31,85.09z"/></g><g><line x1="113.33" x2="131.51" y1="135.05" y2="135.05" fill="#00ED92" stroke="#00ED92" stroke-linecap="round" stroke-miterlimit="10" stroke-width="4"/><path fill="#00ED92" stroke="#00ED92" stroke-linecap="round" stroke-miterlimit="10" stroke-width="4" d="M143.17,135.05"/><line x1="146.85" x2="138.07" y1="135.05" y2="135.05" fill="#00ED92" stroke="#00ED92" stroke-linecap="round" stroke-miterlimit="10" stroke-width="4"/><line x1="50.17" x2="73.72" y1="135.05" y2="135.05" fill="#00ED92" stroke="#00ED92" stroke-linecap="round" stroke-miterlimit="10" stroke-width="4"/><line x1="49.45" x2="90.7" y1="103.15" y2="103.15" fill="#00ED92" stroke="#00ED92" stroke-linecap="round" stroke-miterlimit="10" stroke-width="4"/><line x1="96.37" x2="105.27" y1="103.15" y2="103.15" fill="#00ED92" stroke="#00ED92" stroke-linecap="round" stroke-miterlimit="10" stroke-width="4"/><line x1="111.33" x2="114.25" y1="103.15" y2="103.15" fill="#00ED92" stroke="#00ED92" stroke-linecap="round" stroke-miterlimit="10" stroke-width="4"/><line x1="50.75" x2="96.37" y1="76.64" y2="76.64" fill="#00ED92" stroke="#00ED92" stroke-linecap="round" stroke-miterlimit="10" stroke-width="4"/></g></g></switch></svg>