<svg xmlns="http://www.w3.org/2000/svg" xmlns:xlink="http://www.w3.org/1999/xlink" id="Layer_1" x="0" y="0" enable-background="new 0 0 215 215" version="1.1" viewBox="0 0 215 215" xml:space="preserve"><switch><g><line x1="178.05" x2="121.16" y1="92.61" y2="92.61" fill="none" stroke="#D0C2DF" stroke-linecap="round" stroke-miterlimit="10"/><line x1="36.77" x2="94.54" y1="122.46" y2="122.46" fill="none" stroke="#D0C2DF" stroke-linecap="round" stroke-miterlimit="10"/><circle cx="107.81" cy="107.5" r="20" fill="#FFF" stroke="#1C0E40" stroke-linecap="round" stroke-miterlimit="10" stroke-width="6"/><circle cx="107.81" cy="107.5" r="15.39" fill="#00ED92"/><line x1="53.54" x2="107.5" y1="127.5" y2="127.5" fill="#FFF" stroke="#1C0E40" stroke-linecap="round" stroke-miterlimit="10" stroke-width="6"/><line x1="107.5" x2="161.46" y1="87.5" y2="87.5" fill="#FFF" stroke="#1C0E40" stroke-linecap="round" stroke-miterlimit="10" stroke-width="6"/><polygon fill="none" stroke="#1C0E40" stroke-linecap="round" stroke-miterlimit="10" stroke-width="6" points="47.19 127.5 56.71 133 56.71 127.5"/><polygon fill="none" stroke="#1C0E40" stroke-linecap="round" stroke-miterlimit="10" stroke-width="6" points="167.81 87.5 158.29 82 158.29 87.5"/><g><path fill="#FFF" stroke="#1C0E3F" stroke-miterlimit="10" d="M114.34,107.52l-5.5,4.31c-0.46,0.36-1.07,0.37-1.54,0.04 l-5.77-4.12c-0.62-0.44-0.83-1.33-0.48-2.05l5.5-11.52c0.51-1.08,1.89-1.09,2.43-0.03l5.78,11.33 C115.1,106.18,114.93,107.06,114.34,107.52z"/><path fill="#FFF" stroke="#1C0E3F" stroke-miterlimit="10" d="M102.9,110.58c2.09,1.48,4.63,3.19,5.23,3.22 c0.61,0.03,3.36-1.86,5.57-3.45c0.64-0.46,1.42,0.41,1,1.12l-5.84,9.9c-0.27,0.46-0.88,0.46-1.16,0l-5.78-9.67 C101.5,110.99,102.26,110.12,102.9,110.58z"/></g></g></switch></svg>