<svg xmlns="http://www.w3.org/2000/svg" xmlns:xlink="http://www.w3.org/1999/xlink" id="Layer_1" x="0" y="0" enable-background="new 0 0 215 215" version="1.1" viewBox="0 0 215 215" xml:space="preserve"><switch><g><g><line x1="98.23" x2="115.87" y1="149.91" y2="149.91" fill="#1C0B40" fill-rule="evenodd" stroke="#1C0B40" stroke-linecap="round" stroke-miterlimit="10" stroke-width="6" clip-rule="evenodd"/><g><path fill="none" fill-rule="evenodd" stroke="#1C0B40" stroke-linecap="round" stroke-miterlimit="10" stroke-width="5" d="M120.67,116.02c8.22-4.71,13.75-13.57,13.75-23.73c0-15.11-12.26-27.37-27.38-27.37c-15.11,0-27.37,12.26-27.37,27.37 c0,10.16,5.53,19.03,13.75,23.74" clip-rule="evenodd"/><path fill="none" fill-rule="evenodd" stroke="#1C0B40" stroke-linecap="round" stroke-miterlimit="10" stroke-width="5" d="M120.67,116.02c0.21,0.88,0.32,1.79,0.32,2.73v10.16c0,6.6-5.4,12-12,12h-3.89c-6.6,0-12-5.4-12-12v-10.16 c0-0.94,0.11-1.85,0.32-2.72" clip-rule="evenodd"/><path fill="#FFF" fill-rule="evenodd" stroke="#1C0B40" stroke-linecap="round" stroke-miterlimit="10" stroke-width="5" d="M120.67,116.02c0.21,0.88,0.32,1.79,0.32,2.73v10.16c0,6.6-5.4,12-12,12h-3.89c-6.6,0-12-5.4-12-12v-10.16 c0-0.94,0.11-1.85,0.32-2.72" clip-rule="evenodd"/></g><polyline fill="#00ED92" fill-rule="evenodd" stroke="#00ED92" stroke-linecap="round" stroke-linejoin="round" stroke-miterlimit="10" stroke-width="5" points="113.19 77.91 101.28 89.82 113.19 89.82 100.9 102.11" clip-rule="evenodd"/></g></g></switch></svg>