<svg xmlns="http://www.w3.org/2000/svg" xmlns:xlink="http://www.w3.org/1999/xlink" id="Layer_1" x="0" y="0" enable-background="new 0 0 215 215" version="1.1" viewBox="0 0 215 215" xml:space="preserve"><switch><g><path id="rightc" fill="none" stroke="#D0C2DF" stroke-linecap="round" stroke-miterlimit="10" stroke-width="2" d="M111.43,111.76c0,22.06,10.24,39.94,22.88,39.94"/><path id="leftc" fill="none" stroke="#D0C2DF" stroke-linecap="round" stroke-miterlimit="10" stroke-width="2" d="M80.69,151.7 c12.64,0,22.88-17.88,22.88-39.94"/><polyline id="left" fill="none" stroke="#1C0E3F" stroke-linecap="round" stroke-miterlimit="10" stroke-width="4" points="103.57 64.7 103.57 151.7 79.18 151.7"/><polyline id="right" fill="none" stroke="#1C0E3F" stroke-linecap="round" stroke-miterlimit="10" stroke-width="4" points="111.43 64.7 111.43 151.7 135.82 151.7"/><g display="none"><path fill="#FFF" fill-rule="evenodd" stroke="#1C0E3F" stroke-miterlimit="10" stroke-width="4" d="M128.43,103.99c0.2,11.5-8.96,20.99-20.47,21.19c-11.5,0.2-20.99-8.96-21.19-20.47c-0.2-11.5,8.96-20.99,20.47-21.19 C118.74,83.32,128.23,92.49,128.43,103.99z" clip-rule="evenodd" display="inline"/><path fill="#D0C2DF" d="M113.39,104.37l-4.87,3.82c-0.41,0.32-0.95,0.33-1.37,0.03l-5.12-3.65 c-0.55-0.39-0.73-1.18-0.43-1.82l4.87-10.21c0.46-0.96,1.67-0.97,2.15-0.03l5.12,10.04 C114.06,103.18,113.91,103.97,113.39,104.37z" display="inline"/><path fill="#D0C2DF" d="M103.25,107.08c1.85,1.31,4.11,2.83,4.64,2.86c0.54,0.03,2.97-1.64,4.93-3.06 c0.57-0.41,1.26,0.36,0.88,0.99l-5.18,8.77c-0.24,0.41-0.78,0.41-1.02,0l-5.13-8.57C102,107.45,102.68,106.68,103.25,107.08z" display="inline"/></g><polygon fill="none" stroke="#1C0E3F" stroke-linecap="round" stroke-miterlimit="10" stroke-width="4" points="103.54 63.3 100.31 68.9 103.57 68.9"/><polygon fill="none" stroke="#1C0E3F" stroke-linecap="round" stroke-miterlimit="10" stroke-width="4" points="111.46 63.3 114.69 68.9 111.43 68.9"/><g><circle cx="107.64" cy="99.52" r="20" fill="#FFF" stroke="#1C0E40" stroke-linecap="round" stroke-miterlimit="10" stroke-width="4"/><circle cx="107.64" cy="99.52" r="16.33" fill="#00ED92"/><g><path fill="#FFF" stroke="#1C0E3F" stroke-miterlimit="10" d="M114.17,99.55l-5.5,4.31c-0.46,0.36-1.07,0.37-1.54,0.04 l-5.77-4.12c-0.62-0.44-0.83-1.33-0.48-2.05l5.5-11.52c0.51-1.08,1.89-1.09,2.43-0.03l5.78,11.33 C114.94,98.2,114.76,99.09,114.17,99.55z"/><path fill="#FFF" stroke="#1C0E3F" stroke-miterlimit="10" d="M102.74,102.6c2.09,1.48,4.63,3.19,5.23,3.22 c0.61,0.03,3.36-1.86,5.57-3.45c0.64-0.46,1.42,0.41,1,1.12l-5.84,9.9c-0.27,0.46-0.88,0.46-1.16,0l-5.78-9.67 C101.33,103.01,102.1,102.14,102.74,102.6z"/></g></g></g></switch></svg>