<svg xmlns="http://www.w3.org/2000/svg" xmlns:xlink="http://www.w3.org/1999/xlink" id="Layer_1" x="0" y="0" enable-background="new 0 0 215 215" version="1.1" viewBox="0 0 215 215" xml:space="preserve"><switch><g><g><path fill="#00ED92" fill-rule="evenodd" d="M119.96,167.48c6.5-4.13,10.82-11.39,10.82-19.66 c0-5.54-1.93-10.63-5.16-14.62l-5.27-2.63l-12.84-1.2l-12.44,1.61l-6.42,3.21c-2.78,3.83-4.42,8.55-4.42,13.65 c0,8.27,4.32,15.54,10.82,19.67L119.96,167.48z" clip-rule="evenodd"/><path fill="#BCB0D0" fill-rule="evenodd" d="M119.96,167.48c6.5-4.13,10.82-11.39,10.82-19.66 c0-5.54-1.93-10.63-5.16-14.62l-5.27-2.63l-12.84-1.2l-12.44,1.61l-6.42,3.21c-2.78,3.83-4.42,8.55-4.42,13.65 c0,8.27,4.32,15.54,10.82,19.67L119.96,167.48z" clip-rule="evenodd"/><path fill="#FFF" fill-rule="evenodd" d="M116.98,139.29c0,2.97-2.42,5.39-5.41,5.39 c-2.99,0-5.41-2.41-5.41-5.39c0-2.97,2.42-5.39,5.41-5.39C114.55,133.9,116.97,136.31,116.98,139.29L116.98,139.29z M120.84,147.34c0,0.58-0.23,1.13-0.64,1.54c-0.41,0.41-0.97,0.64-1.55,0.64c-0.58,0-1.14-0.23-1.55-0.64 c-0.41-0.41-0.64-0.96-0.64-1.54c0-0.58,0.23-1.13,0.64-1.54c0.41-0.41,0.97-0.64,1.55-0.64s1.14,0.23,1.55,0.64 C120.61,146.21,120.84,146.76,120.84,147.34" clip-rule="evenodd"/><g><path fill="#1C0B40" fill-rule="evenodd" d="M95.04,167.48h24.92c6.5-4.13,10.82-11.39,10.82-19.66 c0-5.54-1.93-10.63-5.16-14.62l-5.27-2.63l-12.84-1.2l-12.44,1.61l-6.42,3.21c-2.78,3.83-4.42,8.55-4.42,13.65 C84.22,156.09,88.54,163.35,95.04,167.48z M125.67,147.82c0,10.04-8.14,18.17-18.17,18.17c-10.04,0-18.18-8.14-18.18-18.17 c0-10.04,8.14-18.18,18.18-18.18C117.54,129.64,125.67,137.78,125.67,147.82z" clip-rule="evenodd"/><path fill="#1C0B40" fill-rule="evenodd" d="M69.38,129.54c1.37-0.33,2.75,0.51,3.08,1.88l3.27,13.47 c0.33,1.37-0.51,2.75-1.88,3.08c-1.37,0.33-2.75-0.51-3.08-1.88l-3.27-13.47C67.17,131.25,68.01,129.87,69.38,129.54z" clip-rule="evenodd"/><path fill="#1C0B40" fill-rule="evenodd" d="M146.55,115.46c1.39,0.21,2.36,1.5,2.15,2.9l-4.19,28.49 c-0.21,1.39-1.5,2.36-2.9,2.15c-1.39-0.21-2.36-1.5-2.15-2.9l4.19-28.49C143.86,116.22,145.16,115.26,146.55,115.46z" clip-rule="evenodd"/><path fill="#1C0B40" fill-rule="evenodd" d="M152.83,154.62c1.6-6.84-4.64-12.94-11.45-11.18l-1.56,0.4 l1.27,4.94l1.56-0.4c3.09-0.8,5.93,1.97,5.2,5.08l-2.2,9.44c-0.34,1.44-1.39,2.6-2.8,3.07l-6.02,2.01l1.61,4.84l6.02-2.01 c3.08-1.03,5.41-3.58,6.15-6.75L152.83,154.62z" clip-rule="evenodd"/><path fill="#1C0B40" fill-rule="evenodd" d="M62.17,154.62c-1.6-6.84,4.64-12.94,11.45-11.18l1.56,0.4 l-1.27,4.94l-1.56-0.4c-3.09-0.8-5.93,1.97-5.2,5.08l2.2,9.44c0.34,1.44,1.39,2.6,2.8,3.07l6.02,2.01l-1.61,4.84l-6.02-2.01 c-3.08-1.03-5.41-3.58-6.15-6.75L62.17,154.62z" clip-rule="evenodd"/><path fill="#1C0B40" fill-rule="evenodd" d="M137.31,155.57l-6.02,19.5c-0.34,1.32-0.52,2.67-0.52,4.04 v3.57c0,4.43-3.59,8.03-8.03,8.03l-29.62,0c-4.7,0-8.5-3.81-8.5-8.5v-2.69c0-1.63-0.23-3.25-0.69-4.81l-5.35-18.16 c-1.31-4.44-2.11-9.13-0.99-13.62c3.42-13.71,15.14-24.39,30.12-24.39c14.71,0,27.84,11.06,30.46,25.4 C138.87,147.79,138.3,151.76,137.31,155.57z M137.84,176.91l6.01-19.48l0.04-0.15c1.1-4.22,1.93-9.3,0.96-14.59 c-3.22-17.55-19.14-30.98-37.16-30.97c-18.48,0-32.64,13.19-36.72,29.55c-1.56,6.27-0.35,12.37,1.07,17.19l5.35,18.16 c0.28,0.94,0.42,1.91,0.42,2.89v2.69c0,8.45,6.85,15.31,15.31,15.31l29.62,0c8.19,0,14.83-6.64,14.83-14.83v-3.57 C137.58,178.36,137.67,177.62,137.84,176.91L137.84,176.91z" clip-rule="evenodd"/><path fill="#1C0B40" fill-rule="evenodd" d="M73.49,141.65c17.59-19.67,48.04-20.7,66.92-2.26l2.18,2.13 l-3.57,3.65l-2.18-2.13c-16.8-16.41-43.89-15.5-59.55,2.01L73.49,141.65z" clip-rule="evenodd"/><path fill="#1C0B40" fill-rule="evenodd" d="M133.59,180.97H82.62v-5.1h50.97V180.97z" clip-rule="evenodd"/><path fill="#1C0B40" fill-rule="evenodd" d="M137.2,170.03H79.81v-5.1h57.39V170.03z" clip-rule="evenodd"/></g></g><g><line x1="98.68" x2="116.32" y1="102.49" y2="102.49" fill="#1C0B40" fill-rule="evenodd" stroke="#1C0B40" stroke-linecap="round" stroke-miterlimit="10" stroke-width="6" clip-rule="evenodd"/><g><path fill="none" fill-rule="evenodd" stroke="#1C0B40" stroke-linecap="round" stroke-miterlimit="10" stroke-width="5" d="M121.12,68.6c8.22-4.71,13.75-13.57,13.75-23.73c0-15.11-12.26-27.37-27.38-27.37c-15.11,0-27.37,12.26-27.37,27.37 c0,10.16,5.53,19.03,13.75,23.74" clip-rule="evenodd"/><path fill="none" fill-rule="evenodd" stroke="#1C0B40" stroke-linecap="round" stroke-miterlimit="10" stroke-width="5" d="M121.12,68.6c0.21,0.88,0.32,1.79,0.32,2.73v10.16c0,6.6-5.4,12-12,12h-3.89c-6.6,0-12-5.4-12-12V71.33 c0-0.94,0.11-1.85,0.32-2.72" clip-rule="evenodd"/></g><polyline fill="#00ED92" fill-rule="evenodd" stroke="#00ED92" stroke-linecap="round" stroke-linejoin="round" stroke-miterlimit="10" stroke-width="5" points="113.64 30.49 101.74 42.4 113.64 42.4 101.36 54.69" clip-rule="evenodd"/></g></g></switch></svg>